<?xml version="1.0" encoding="utf-8"?>
<!-- Generator: Adobe Illustrator 24.3.0, SVG Export Plug-In . SVG Version: 6.00 Build 0)  -->
<svg id="drum" version="1.1" xmlns="http://www.w3.org/2000/svg" xmlns:xlink="http://www.w3.org/1999/xlink" x="0px" y="0px"
	 viewBox="0 0 200 200" style="enable-background:new 0 0 200 200;" xml:space="preserve">
<style type="text/css">
	.st0{fill:#FFFFFF;stroke:#231F20;stroke-miterlimit:10;}
	.st1{fill:none;stroke:#231F20;stroke-miterlimit:10;}
	.st2{fill:#231F20;}
	.st3{fill:none;stroke:#FFFFFF;stroke-width:0.75;stroke-miterlimit:10;}

	#drum:hover { fill: #0c5b6b;}
	#drum:hover .st2 { fill: #0c5b6b;}

</style>
<g id="Layer_1">
	<ellipse class="st0" cx="102.6" cy="80.2" rx="45.8" ry="9.7"/>
	<ellipse class="st0" cx="102.6" cy="124" rx="45.8" ry="9.7"/>
</g>
<g id="Layer_2">
	<line class="st1" x1="148.4" y1="80.2" x2="148.4" y2="124"/>
	<line class="st1" x1="56.8" y1="80.2" x2="56.7" y2="124"/>
</g>
<g id="drum">
	<g id="Layer_3">
		<path class="st2" d="M56.8,82.4c0,0,10.2,7.4,38.8,7.5c28.6,0.1,41.7-2.6,45.7-4.2c4.1-1.5,7.1-3.8,7.1-3.8v41c0,0,0.8,4-6.3,6
			c-7.1,2-22,4.3-29.2,4.5c-7.2,0.2-25.9,0.1-33.4-1.1c-7.5-1.2-21.3-4.2-22.4-7.2S56.8,82.4,56.8,82.4z"/>
	</g>
	<g id="Layer_4">
		<line class="st3" x1="63.7" y1="86.6" x2="63.7" y2="127.2"/>
		<line class="st3" x1="79.7" y1="90" x2="79.7" y2="130.6"/>
		<line class="st3" x1="101.9" y1="91.5" x2="101.9" y2="132.1"/>
		<line class="st3" x1="124.1" y1="90" x2="124.1" y2="130.6"/>
		<line class="st3" x1="142.3" y1="86.4" x2="142.3" y2="127"/>
		<g id="Layer_5">
			<g>
				<g>
					<path d="M114.2,82.4c5.4-3.3,10.7-6.5,16.1-9.8c8.5-5.2,17-10.3,25.5-15.5c2-1.2,3.9-2.4,5.9-3.6c2.7-1.7,0.2-6-2.5-4.3
						c-5.4,3.3-10.7,6.5-16.1,9.8c-8.5,5.2-17,10.3-25.5,15.5c-2,1.2-3.9,2.4-5.9,3.6C108.9,79.7,111.4,84.1,114.2,82.4L114.2,82.4z
						"/>
				</g>
			</g>
			<ellipse transform="matrix(0.7071 -0.7071 0.7071 0.7071 -23.31 103.9374)" cx="113.8" cy="80.1" rx="4.5" ry="3.7"/>
		</g>
		<g id="Layer_5_copy">
			<g>
				<g>
					<path d="M91.4,78.8c-5.2-3.6-10.3-7.1-15.5-10.7c-8.2-5.7-16.4-11.3-24.6-17c-1.9-1.3-3.8-2.6-5.7-3.9
						c-1.1-0.8-2.8-0.2-3.4,0.9c-0.7,1.2-0.2,2.7,0.9,3.4c5.2,3.6,10.3,7.1,15.5,10.7c8.2,5.7,16.4,11.3,24.6,17
						c1.9,1.3,3.8,2.6,5.7,3.9c1.1,0.8,2.8,0.2,3.4-0.9C93.1,81,92.5,79.6,91.4,78.8L91.4,78.8z"/>
				</g>
			</g>
			<ellipse transform="matrix(0.3568 -0.9342 0.9342 0.3568 -17.2019 135.3603)" cx="89.7" cy="80.2" rx="3.7" ry="4.5"/>
		</g>
	</g>
</g>
</svg>
