<?xml version="1.0" encoding="utf-8"?>
<!-- Generator: Adobe Illustrator 24.3.0, SVG Export Plug-In . SVG Version: 6.00 Build 0)  -->
<svg version="1.1" xmlns="http://www.w3.org/2000/svg" xmlns:xlink="http://www.w3.org/1999/xlink" x="0px" y="0px"
	 viewBox="0 0 200 200" style="enable-background:new 0 0 200 200;" xml:space="preserve">
<style type="text/css">
	.st0{fill:#231F20;}
</style>
<g id="Layer_1">
	<path d="M56.3,174.5c-23.5,0-42.5-19-42.5-42.5s19-42.5,42.5-42.5"/>
	<path d="M66.2,174.5L66.2,174.5c-3.5,0-6.4-2.9-6.4-6.4V95.9c0-3.5,2.9-6.4,6.4-6.4h0c3.5,0,6.4,2.9,6.4,6.4v72.2
		C72.6,171.6,69.7,174.5,66.2,174.5z"/>
	<path d="M146.2,89.5c23.5,0,42.5,19,42.5,42.5s-19,42.5-42.5,42.5"/>
	<path d="M136.3,89.5L136.3,89.5c3.5,0,6.4,2.9,6.4,6.4v72.2c0,3.5-2.9,6.4-6.4,6.4h0c-3.5,0-6.4-2.9-6.4-6.4V95.9
		C129.9,92.4,132.8,89.5,136.3,89.5z"/>
	<g>
		<g>
			<path class="st0" d="M43.7,85.3c0-1.9,0.1-3.9,0.2-5.8c0.1-0.9,0.1-1.9,0.2-2.8c0-0.4,0.1-0.9,0.1-1.3c0-0.2,0.1-0.5,0.1-0.7
				c0.1-0.7,0-0.5,0,0.1c0.3-3.7,1.3-7.4,2.2-11c0.5-1.8,1-3.5,1.6-5.2c0.3-0.8,0.6-1.6,0.9-2.5c0.1-0.4,0.3-0.8,0.4-1.1
				c0.1-0.2,0.2-0.4,0.3-0.6c0.3-0.6-0.5,1.1,0,0.1c1.4-3.2,3-6.4,4.8-9.4c0.9-1.4,1.8-2.8,2.7-4.2c0.5-0.7,1-1.3,1.5-2
				c0.7-1-0.4,0.5,0.1-0.2c0.3-0.4,0.6-0.8,0.9-1.2c2.1-2.6,4.4-5,6.9-7.3c0.6-0.5,1.2-1.1,1.8-1.6c0.3-0.2,0.6-0.5,0.9-0.7
				c0.2-0.1,0.3-0.3,0.5-0.4c0.7-0.6,0.1,0.1-0.1,0.1c0.4,0,1.6-1.2,1.9-1.4c0.7-0.5,1.4-1,2.1-1.4c2.7-1.7,5.5-3.2,8.4-4.5
				c0.8-0.4-0.2,0.1-0.3,0.1c0.2-0.1,0.5-0.2,0.7-0.3c0.4-0.2,0.9-0.3,1.3-0.5c0.8-0.3,1.7-0.6,2.5-0.9c1.7-0.6,3.5-1,5.3-1.4
				c0.9-0.2,1.8-0.4,2.6-0.5c0.4-0.1,1.9-0.1,0.4-0.1c0.4,0,0.8-0.1,1.3-0.1c1.9-0.2,3.8-0.3,5.8-0.3c2.6,0,5.1-2.3,5-5
				c-0.1-2.7-2.2-5-5-5c-14.7,0-28.6,5.6-39.9,15c-11.5,9.5-19.6,22.8-24.1,37C35,67,33.7,76.2,33.7,85.3c0,2.6,2.3,5.1,5,5
				C41.4,90.2,43.7,88.1,43.7,85.3L43.7,85.3z"/>
		</g>
	</g>
	<g>
		<g>
			<path class="st0" d="M169,85.3c0-15.8-4-31.8-12.2-45.4c-7.3-12.2-18.1-22.8-31.2-28.5C118,8.2,110,6.3,101.7,6.3
				c-2.6,0-5.1,2.3-5,5c0.1,2.7,2.2,5,5,5c1.6,0,3.3,0.1,4.9,0.2c0.4,0,0.7,0.1,1.1,0.1c0.2,0,0.4,0.1,0.6,0.1
				c-0.1,0-1.3-0.2-0.4-0.1c0.8,0.1,1.7,0.3,2.5,0.4c3.1,0.6,6.2,1.5,9.1,2.6c0.3,0.1,0.7,0.3,1,0.4c0.8,0.3-0.3-0.1-0.3-0.1
				c0.2,0.1,0.4,0.2,0.6,0.2c0.8,0.3,1.5,0.7,2.3,1.1c1.4,0.7,2.8,1.4,4.1,2.2c1.4,0.8,2.8,1.7,4.1,2.7c0.3,0.2,0.6,0.4,0.9,0.7
				c0.2,0.1,0.3,0.3,0.5,0.4c0.7,0.5-0.3-0.2-0.3-0.2c0,0.3,1.7,1.4,2,1.6c2.5,2.1,4.8,4.4,7,6.9c0.5,0.6,1.1,1.2,1.6,1.9
				c0.2,0.3,0.5,0.6,0.7,0.9c0.4,0.5-0.6-0.8-0.2-0.2c0.2,0.2,0.3,0.4,0.5,0.7c1,1.4,2,2.8,2.9,4.2c1.9,2.9,3.5,5.9,5,9.1
				c0.2,0.4,0.4,0.8,0.6,1.3c0.1,0.2,0.6,1.4,0.3,0.7c-0.3-0.6,0.2,0.5,0.3,0.7c0.2,0.5,0.4,1,0.6,1.5c0.6,1.7,1.2,3.4,1.8,5.2
				c1.2,3.9,2.1,7.9,2.7,12c0,0.2,0.1,0.5,0.1,0.7c0,0.2,0.2,1.2,0.1,0.4c-0.1-0.7,0-0.1,0,0.1c0,0.4,0.1,0.7,0.1,1.1
				c0.1,1.1,0.2,2.1,0.3,3.2c0.2,2.2,0.2,4.4,0.2,6.6c0,2.6,2.3,5.1,5,5C166.7,90.2,169,88.1,169,85.3L169,85.3z"/>
		</g>
	</g>
</g>
<g id="Layer_2">
</g>
</svg>
