<?xml version="1.0" encoding="utf-8"?>
<!-- Generator: Adobe Illustrator 24.3.0, SVG Export Plug-In . SVG Version: 6.00 Build 0)  -->
<svg id="microphone" version="1.1" xmlns="http://www.w3.org/2000/svg" xmlns:xlink="http://www.w3.org/1999/xlink" x="0px" y="0px"
	 viewBox="0 0 200 200" style="enable-background:new 0 0 200 200;" xml:space="preserve">
<style type="text/css">
	.st0{fill:#231F20;}
	.st1{fill:none;stroke:#FFFFFF;stroke-miterlimit:10;}

	#microphone:hover { fill: #0c5b6b; }
	#microphone:hover .st0 { fill: #0c5b6b}

</style>
<g id="Layer_1">
	<path class="st0" d="M118.6,125.8H92.7c-6.6,0-12-5.4-12-12V52c0-6.6,5.4-12,12-12h25.9c6.6,0,12,5.4,12,12v61.7
		C130.6,120.4,125.2,125.8,118.6,125.8z"/>
	<g>
		<g>
			<path d="M62.6,79.3c0,12.4-0.4,24.9,1.7,37.2c1.6,9.4,5.5,18.9,14.1,23.9c5.4,3.2,11.8,4.1,18.1,4.2c3.2,0,3.2-5,0-5
				c-2.8,0-5.4-0.2-8-0.7c-1.2-0.2-2.4-0.6-3.5-1c-1.3-0.4-1.6-0.6-2.8-1.2c-3.7-1.9-6.4-4.5-8.4-7.9c-1.2-2.1-1.8-3.5-2.6-5.6
				c-0.8-2.3-1.3-4.6-1.8-6.9c-1-5.1-1.3-10.4-1.5-15.9c-0.3-7-0.2-14-0.2-21.1C67.6,76.1,62.6,76.1,62.6,79.3L62.6,79.3z"/>
		</g>
	</g>
	<g>
		<g>
			<path d="M145,79.2c0,6.3,0.1,12.5-0.1,18.8c-0.1,5.4-0.4,11.1-1.3,16.2c-0.4,2.4-0.9,4.8-1.6,7.2c-0.7,2.3-1.3,3.9-2.3,5.9
				c-0.5,0.9-1,1.8-1.6,2.7c-0.7,1-0.8,1.2-1.7,2.1c-1.6,1.7-2.7,2.6-4.5,3.7c-2.3,1.4-4.1,2-6.7,2.7c-3.1,0.7-5.9,1-9.1,1
				c-3.2,0-3.2,5,0,5c5.7,0,11.4-0.8,16.6-3.4c4.2-2.1,7.7-5.3,10.2-9.3c5.6-8.9,6.5-20.4,6.9-30.7c0.3-7.3,0.2-14.6,0.2-21.9
				C150,76,145,76,145,79.2L145,79.2z"/>
		</g>
	</g>
	<rect x="94.5" y="139.1" width="21.6" height="29.7"/>
</g>
<g id="Layer_2">
	<line class="st1" x1="94.5" y1="51.7" x2="94.5" y2="108.3"/>
	<line class="st1" x1="105.3" y1="51.7" x2="105.3" y2="108.3"/>
	<line class="st1" x1="116.1" y1="51.7" x2="116.1" y2="108.3"/>
</g>
<defs>
	<script>
		let microphone = document.querySelector("#microphone");

		function logMyId() {
			console.log(this.id);
		}

		microphone.addEventListener("click", logMyId);
	</script>
</defs>
</svg>
